<?xml version="1.0" encoding="UTF-8"?>
<svg id="Capa_2" data-name="Capa 2" xmlns="http://www.w3.org/2000/svg" viewBox="0 0 141 87">
  <defs>
    <style>
      .cls-1 {
        fill: #1d1d1b;
        stroke-width: 0px;
      }
    </style>
  </defs>
  <g id="Capa_1-2" data-name="Capa 1">
    <path class="cls-1" d="M140.12,81.88l-33.88-33.88,33.88-33.88s.05-.06.08-.09c.06-.06.11-.12.16-.19.04-.05.08-.11.12-.17.04-.06.08-.13.12-.19.04-.07.07-.14.1-.2.02-.04.04-.08.06-.12,0-.02.01-.05.02-.07.03-.07.05-.15.07-.22.02-.07.04-.14.06-.2.02-.07.03-.15.04-.22.01-.07.02-.14.03-.21,0-.07,0-.15,0-.22s0-.15,0-.22c0-.07-.02-.14-.03-.21-.01-.07-.02-.15-.04-.22-.02-.07-.04-.14-.06-.2-.02-.07-.05-.15-.07-.22,0-.02-.01-.05-.02-.07-.02-.04-.04-.08-.06-.12-.03-.07-.07-.14-.1-.21-.04-.07-.08-.13-.12-.19-.04-.06-.08-.11-.12-.17-.05-.07-.11-.13-.16-.19-.03-.03-.05-.06-.08-.09l-9-9c-.56-.56-1.33-.88-2.12-.88h-36s-.08,0-.12,0c-.08,0-.17,0-.25.02-.07,0-.13.02-.2.03-.08.01-.15.03-.22.05-.07.02-.15.05-.22.07-.04.02-.09.02-.13.04-.02,0-.04.02-.06.03-.07.03-.14.07-.21.11-.06.03-.12.07-.18.1-.06.04-.12.08-.18.13-.06.04-.12.09-.17.13-.05.05-.11.1-.16.15s-.1.1-.15.16c-.05.05-.09.11-.13.17-.04.06-.09.12-.13.18-.04.06-.07.12-.1.18-.04.07-.07.14-.11.21,0,.02-.02.04-.03.06-.02.04-.03.08-.04.13-.03.07-.05.15-.07.22-.02.07-.03.14-.05.21-.01.07-.03.14-.04.21,0,.08-.01.16-.02.24,0,.04,0,.09,0,.13v56.14L59.54,10.41s-.02-.03-.03-.04c-.03-.05-.07-.09-.1-.13-.08-.11-.16-.21-.25-.3-.02-.02-.03-.04-.05-.06L50.12.88c-.86-.86-2.15-1.12-3.27-.65-1.12.46-1.85,1.56-1.85,2.77v56.14L14.54,10.41s-.02-.03-.03-.04c-.03-.05-.07-.09-.1-.14-.08-.1-.16-.21-.24-.3-.02-.02-.03-.04-.05-.06L5.12.88C4.26.02,2.97-.24,1.85.23.73.69,0,1.79,0,3v72c0,.8.32,1.56.88,2.12l9,9c.14.14.29.27.46.38.05.04.12.06.17.09.11.06.22.13.34.18.08.03.16.05.24.07.11.03.21.07.32.1.19.04.38.06.57.06,0,0,0,0,.01,0h0c.2,0,.39-.02.59-.06.14-.03.28-.08.41-.12.05-.02.1-.02.15-.04,0,0,0,0,0,0,.03-.01.06-.03.09-.04.13-.06.26-.13.38-.21.05-.03.09-.06.14-.1.1-.07.2-.15.29-.24.04-.04.08-.07.11-.11.11-.11.21-.24.3-.37,0-.01.02-.02.03-.04.1-.14.18-.29.25-.45.02-.05.04-.1.06-.15.05-.12.08-.24.11-.36.01-.05.03-.11.04-.16.03-.18.05-.36.05-.54V22.46l39.46,63.13s.03.03.04.05c.06.09.13.18.2.26.03.03.05.07.08.11.1.11.21.22.33.32,0,0,0,0,0,0,.11.09.24.17.36.25.04.02.08.04.12.06.09.05.18.09.28.13.05.02.1.04.15.05.09.03.19.06.28.08.05.01.11.02.16.03.1.02.19.03.29.04.05,0,.11,0,.16.01.03,0,.05,0,.08,0,.03,0,.07-.01.1-.01.16,0,.32-.02.48-.06.04,0,.07,0,.11-.01.02,0,.04-.02.07-.02.02,0,.05,0,.07-.01.06-.02.12-.05.18-.07.07-.03.15-.05.22-.08.08-.04.16-.08.23-.12.07-.04.13-.07.2-.11.07-.05.14-.11.21-.16.06-.05.12-.09.17-.14.07-.06.12-.13.18-.19.05-.05.1-.11.14-.16.06-.07.1-.15.15-.23.04-.06.08-.12.11-.18.04-.08.08-.17.11-.26.03-.06.06-.12.08-.19.03-.1.06-.2.08-.31.01-.06.03-.11.04-.17.03-.16.04-.33.04-.5V22.46l39.46,63.13s.02.02.03.03c.12.19.27.37.43.52.03.02.05.05.08.07.16.15.34.28.53.39.03.02.06.03.09.05.2.1.4.19.62.24.02,0,.05,0,.07.02.23.05.46.09.7.09,0,0,0,0,0,0s0,0,0,0c.2,0,.41-.03.62-.07.02,0,.05,0,.07,0,.02,0,.04-.01.06-.02.03,0,.05,0,.08-.02.06-.02.12-.05.18-.07.07-.03.15-.05.22-.08.08-.04.16-.08.23-.12.07-.04.13-.07.2-.11.07-.05.14-.11.21-.16.06-.05.12-.09.17-.14.07-.06.12-.13.18-.19.05-.05.1-.11.14-.16.06-.07.1-.15.15-.23.04-.06.08-.12.11-.18.04-.08.08-.17.11-.26.03-.06.06-.12.08-.19.03-.1.06-.2.08-.31.01-.06.03-.11.04-.17.03-.16.04-.33.04-.5v-28.76l30.88,30.88c1.17,1.17,3.07,1.17,4.24,0,1.17-1.17,1.17-3.07,0-4.24ZM105,15h25.76l-25.76,25.76V15Z"/>
  </g>
</svg>