<svg xmlns="http://www.w3.org/2000/svg" viewBox="0 0 99.3 16.01"><defs><style>.cls-1{fill:#fce169;}.cls-10,.cls-15,.cls-18,.cls-2,.cls-24,.cls-29,.cls-32,.cls-35,.cls-38,.cls-45{font-size:3px;fill:#fff;}.cls-10,.cls-15,.cls-18,.cls-2,.cls-24{font-family:Jost-Regular, Jost;}.cls-2{letter-spacing:-0.02em;}.cls-3{letter-spacing:-0.01em;}.cls-4{letter-spacing:0em;}.cls-5{letter-spacing:0em;}.cls-6{letter-spacing:-0.02em;}.cls-7{letter-spacing:-0.02em;}.cls-8{letter-spacing:-0.03em;}.cls-9{fill:none;}.cls-10{letter-spacing:0em;}.cls-11{letter-spacing:-0.01em;}.cls-12{letter-spacing:-0.01em;}.cls-13{letter-spacing:-0.02em;}.cls-14{letter-spacing:-0.01em;}.cls-15{letter-spacing:0em;}.cls-16{letter-spacing:0em;}.cls-17{letter-spacing:0em;}.cls-18{letter-spacing:-0.02em;}.cls-19{letter-spacing:-0.02em;}.cls-20{letter-spacing:-0.01em;}.cls-21{letter-spacing:0.03em;}.cls-22{letter-spacing:0em;}.cls-23{letter-spacing:-0.02em;}.cls-24{letter-spacing:-0.05em;}.cls-25{letter-spacing:0em;}.cls-26{letter-spacing:0.01em;}.cls-27{fill:#200c00;}.cls-28{fill:#fecd53;}.cls-29,.cls-32,.cls-35,.cls-38,.cls-45{font-family:HelveticaNeueLTW1G-Md, Helvetica Neue LT W1G;font-weight:500;}.cls-29{letter-spacing:0em;}.cls-30{letter-spacing:-0.01em;}.cls-31{fill:#a59ecd;}.cls-32,.cls-39{letter-spacing:0em;}.cls-33{letter-spacing:0em;}.cls-34{fill:#ee84b2;}.cls-35{letter-spacing:0em;}.cls-36{letter-spacing:-0.01em;}.cls-37{fill:#70c1aa;}.cls-38{letter-spacing:-0.01em;}.cls-40{letter-spacing:-0.01em;}.cls-41{letter-spacing:-0.01em;}.cls-42{letter-spacing:0.02em;}.cls-43{letter-spacing:0em;}.cls-44{fill:#f49c80;}.cls-45{letter-spacing:-0.08em;}.cls-46{letter-spacing:0em;}.cls-47{fill:#5f5e5e;}</style></defs><g id="Capa_2" data-name="Capa 2"><g id="Capa_1-2" data-name="Capa 1"><circle class="cls-1" cx="8.01" cy="8.01" r="8.01"/><text class="cls-2" transform="translate(1.56 8.76)">E<tspan class="cls-3" x="1.59" y="0">m</tspan><tspan class="cls-4" x="3.9" y="0">pa</tspan><tspan class="cls-5" x="7.05" y="0">t</tspan><tspan class="cls-6" x="7.77" y="0">h</tspan><tspan class="cls-7" x="9.28" y="0">iz</tspan><tspan class="cls-8" x="11.34" y="0">e</tspan></text><circle class="cls-9" cx="28.83" cy="8.01" r="8.01"/><text class="cls-10" transform="translate(24.76 8.76)">D<tspan class="cls-11" x="2.05" y="0">e</tspan><tspan class="cls-12" x="3.57" y="0">f</tspan><tspan class="cls-13" x="4.39" y="0">i</tspan><tspan class="cls-14" x="5.11" y="0">n</tspan><tspan class="cls-8" x="6.67" y="0">e</tspan></text><circle class="cls-9" cx="49.65" cy="8.01" r="8.01"/><text class="cls-15" transform="translate(45.84 8.76)">I<tspan class="cls-16" x="0.75" y="0">de</tspan><tspan class="cls-17" x="3.99" y="0">a</tspan><tspan class="cls-5" x="5.43" y="0">t</tspan><tspan class="cls-8" x="6.14" y="0">e</tspan></text><circle class="cls-9" cx="70.47" cy="8.01" r="8.01"/><text class="cls-18" transform="translate(64.56 8.76)">P<tspan class="cls-19" x="1.59" y="0">r</tspan><tspan class="cls-20" x="2.56" y="0">oto</tspan><tspan class="cls-21" x="6.51" y="0">t</tspan><tspan class="cls-4" x="7.32" y="0">y</tspan><tspan class="cls-22" x="8.64" y="0">p</tspan><tspan class="cls-23" x="10.36" y="0">e</tspan></text><circle class="cls-9" cx="91.29" cy="8.01" r="8.01"/><text class="cls-24" transform="translate(88.95 8.76)">T<tspan class="cls-25" x="1.24" y="0">e</tspan><tspan class="cls-26" x="2.78" y="0">s</tspan><tspan class="cls-23" x="4.03" y="0">t</tspan></text><polygon class="cls-27" points="19.13 7.62 18.46 7.24 18.46 7.76 17.05 7.76 17.05 8.26 18.46 8.26 18.46 8.77 19.13 8.39 19.79 8.01 19.13 7.62"/><polygon class="cls-27" points="39.95 7.62 39.28 7.24 39.28 7.76 37.87 7.76 37.87 8.26 39.28 8.26 39.28 8.77 39.95 8.39 40.61 8.01 39.95 7.62"/><polygon class="cls-27" points="60.77 7.62 60.11 7.24 60.11 7.76 58.69 7.76 58.69 8.26 60.11 8.26 60.11 8.77 60.77 8.39 61.43 8.01 60.77 7.62"/><polygon class="cls-27" points="81.59 7.62 80.93 7.24 80.93 7.76 79.51 7.76 79.51 8.26 80.93 8.26 80.93 8.77 81.59 8.39 82.25 8.01 81.59 7.62"/><circle class="cls-28" cx="8.01" cy="8.01" r="8.01"/><text class="cls-29" transform="translate(0.72 8.76)">Em<tspan class="cls-17" x="4.51" y="0">path</tspan><tspan class="cls-30" x="10.73" y="0">iz</tspan><tspan class="cls-8" x="12.91" y="0">e</tspan></text><circle class="cls-31" cx="28.83" cy="8.01" r="8.01"/><text class="cls-32" transform="translate(24.41 8.76)">D<tspan class="cls-33" x="2.18" y="0">efin</tspan><tspan class="cls-8" x="7.24" y="0">e</tspan></text><circle class="cls-34" cx="49.65" cy="8.01" r="8.01"/><text class="cls-35" transform="translate(45.37 8.76)">Ide<tspan class="cls-25" x="4.35" y="0">a</tspan><tspan class="cls-36" x="6.01" y="0">t</tspan><tspan class="cls-8" x="6.97" y="0">e</tspan></text><circle class="cls-37" cx="70.47" cy="8.01" r="8.01"/><text class="cls-38" transform="translate(63.68 8.76)">P<tspan class="cls-39" x="1.98" y="0">r</tspan><tspan class="cls-40" x="3.04" y="0">o</tspan><tspan class="cls-41" x="4.81" y="0">t</tspan><tspan class="cls-40" x="5.77" y="0">o</tspan><tspan class="cls-42" x="7.53" y="0">t</tspan><tspan class="cls-43" x="8.59" y="0">yp</tspan><tspan class="cls-23" x="11.99" y="0">e</tspan></text><circle class="cls-44" cx="91.29" cy="8.01" r="8.01"/><text class="cls-45" transform="translate(88.43 8.76)">T<tspan class="cls-46" x="1.54" y="0">es</tspan><tspan class="cls-8" x="4.79" y="0">t</tspan></text><polygon class="cls-47" points="19.13 7.62 18.46 7.24 18.46 7.76 17.05 7.76 17.05 8.26 18.46 8.26 18.46 8.77 19.13 8.39 19.79 8.01 19.13 7.62"/><polygon class="cls-47" points="39.95 7.62 39.28 7.24 39.28 7.76 37.87 7.76 37.87 8.26 39.28 8.26 39.28 8.77 39.95 8.39 40.61 8.01 39.95 7.62"/><polygon class="cls-47" points="60.77 7.62 60.11 7.24 60.11 7.76 58.69 7.76 58.69 8.26 60.11 8.26 60.11 8.77 60.77 8.39 61.43 8.01 60.77 7.62"/><polygon class="cls-47" points="81.59 7.62 80.93 7.24 80.93 7.76 79.51 7.76 79.51 8.26 80.93 8.26 80.93 8.77 81.59 8.39 82.25 8.01 81.59 7.62"/></g></g></svg>